# xmcd CD database file
#
# Track frame offsets:
#	150
#	7488
#	20733
#	32796
#	46489
#	58215
#	69685
#	85445
#	97849
#	110247
#	121474
#	134286
#	145619
#	151029
#	166119
#
# Disc length: 2425 seconds
#
# Revision: 0
# Processed by: cddbd v1.5.2PL0 Copyright (c) Steve Scherf et al.
# Submitted via: CDex 1.70beta2
#
DISCID=d309770f
DTITLE=Country Love - Country Love
DYEAR=2011
DGENRE=Country
TTITLE0=Down in the Corner of Love- Buck Owens
TTITLE1=Fever -  Billie Joe Spears
TTITLE2=Goly Gosh Oh Gee - Conway Twitty
TTITLE3=Home is Where You're Happy - Wilie Nelson
TTITLE4=I Heard the Jukebox Playing - Faron Young
TTITLE5=Let the Terdrops Fall - Patsy Kline
TTITLE6=Me and Bobby McGhee - Roy Clark
TTITLE7=Music City USA - Bobby Bare
TTITLE8=One by One - Kitty Wells
TTITLE9=Sally Was a Good Old Girl - Waylon Jennings
TTITLE10=Send Me No Roses - Tommy Overstreet
TTITLE11=Smokey the Bar - Hank Thompson
TTITLE12=Here Stands the Glass - Webb Pierce
TTITLE13=I Fall to Pieces - Diana Trask
TTITLE14=Detroit City - Bill Anderson
EXTD=YEAR: 2011
EXTT0=
EXTT1=
EXTT2=
EXTT3=
EXTT4=
EXTT5=
EXTT6=
EXTT7=
EXTT8=
EXTT9=
EXTT10=
EXTT11=
EXTT12=
EXTT13=
EXTT14=
PLAYORDER=
